<svg xmlns="http://www.w3.org/2000/svg" viewBox="0 0 200 200" fill="none">
  <rect x="20" y="44" width="160" height="20" rx="2" fill="#cbd5e1"/>
  <rect x="20" y="44" width="160" height="20" rx="2" fill="none" stroke="#94a3b8" stroke-width="1"/>
  <rect x="20" y="70" width="160" height="20" rx="2" fill="#e2e8f0"/>
  <rect x="20" y="70" width="160" height="20" rx="2" fill="none" stroke="#94a3b8" stroke-width="1"/>
  <rect x="20" y="96" width="160" height="20" rx="2" fill="#cbd5e1"/>
  <rect x="20" y="96" width="160" height="20" rx="2" fill="none" stroke="#94a3b8" stroke-width="1"/>
  <rect x="20" y="122" width="160" height="20" rx="2" fill="#e2e8f0"/>
  <rect x="20" y="122" width="160" height="20" rx="2" fill="none" stroke="#94a3b8" stroke-width="1"/>
  <rect x="20" y="148" width="160" height="20" rx="2" fill="#cbd5e1"/>
  <rect x="20" y="148" width="160" height="20" rx="2" fill="none" stroke="#94a3b8" stroke-width="1"/>
  <line x1="20" y1="44" x2="15" y2="70" stroke="#94a3b8" stroke-width="1.5"/>
  <line x1="20" y1="70" x2="15" y2="96" stroke="#94a3b8" stroke-width="1.5"/>
  <line x1="20" y1="96" x2="15" y2="122" stroke="#94a3b8" stroke-width="1.5"/>
  <line x1="20" y1="122" x2="15" y2="148" stroke="#94a3b8" stroke-width="1.5"/>
</svg>